<?xml version="1.0" encoding="UTF-8"?>
<svg fill="#FFFFFF" width="36pt" height="36pt" version="1.1" viewBox="0 0 100 100" xmlns="http://www.w3.org/2000/svg">
 <path d="m97.98 25.457-23.438-23.438c-0.29297-0.29297-0.69141-0.45703-1.1055-0.45703h-46.875c-0.41406 0-0.8125 0.16406-1.1055 0.45703l-23.438 23.438c-0.29297 0.29297-0.45703 0.69141-0.45703 1.1055v46.875c0 0.41406 0.16406 0.8125 0.45703 1.1055l23.438 23.438c0.29297 0.29297 0.69141 0.45703 1.1055 0.45703h46.875c0.41406 0 0.8125-0.16406 1.1055-0.45703l23.438-23.438c0.29297-0.29297 0.45703-0.69141 0.45703-1.1055v-46.875c0-0.41406-0.16406-0.8125-0.45703-1.1055zm-93.293 1.7539 22.523-22.523h29.324c-3.1133 1.5078-6.0039 3.5078-8.5234 6.0273l-36.977 36.977c-4.1094-5.0117-6.3477-11.234-6.3477-17.801zm45.312 59.641-36.852-36.852 36.852-36.852 36.852 36.852zm-20.312 8.4609h-2.4766l-22.523-22.523v-29.324c1.5078 3.1172 3.5078 6.0039 6.0273 8.5234l36.977 36.977c-5.0117 4.1133-11.234 6.3477-17.801 6.3477zm65.625-22.523-22.523 22.523h-29.324c3.1133-1.5078 6.0039-3.5078 8.5234-6.0273l36.977-36.977c4.1094 5.0117 6.3477 11.234 6.3477 17.801zm-6.0273-24.777-36.977-36.977c5.0117-4.1133 11.234-6.3477 17.801-6.3477h2.6797l22.523 22.523v29.324c-1.5078-3.1172-3.5078-6.0039-6.0273-8.5234z"/>
</svg>
