<?xml version="1.0" encoding="UTF-8" standalone="no"?>
<svg xmlns:dc="http://purl.org/dc/elements/1.1/"
	xmlns:cc="http://creativecommons.org/ns#"
	xmlns:rdf="http://www.w3.org/1999/02/22-rdf-syntax-ns#"
	xmlns:svg="http://www.w3.org/2000/svg"

	xmlns="http://www.w3.org/2000/svg" width="38.000000pt" height="38.000000pt" viewBox="0 0 172.000000 172.000000" xml:space="preserve" id="svg2" version="1.1">
	<metadata id="metadata8">
		<rdf:RDF>
			<cc:Work rdf:about="">
				<dc:format>image/svg+xml</dc:format>
				<dc:type rdf:resource="http://purl.org/dc/dcmitype/StillImage" />
			</cc:Work>
		</rdf:RDF>
	</metadata>
	<defs id="defs6" />
	<g transform="matrix(1.3333333,0,0,-1.3333333,0,188.97333)" id="g10">
		<g transform="scale(0.1)" id="g12">
			<path id="path14" style="fill:#ffffff;fill-opacity:1;fill-rule:nonzero;stroke:none" d="M 617.949,799.203 H 471.477 V 945.68 H 617.949 Z M 354.297,1062.85 V 682.02 h 380.832 v 380.83 H 354.297" />
			<path id="path16" style="fill:#ffffff;fill-opacity:1;fill-rule:nonzero;stroke:none" d="M 998.781,799.203 H 852.305 V 945.68 H 998.781 V 799.203" />
			<path id="path18" style="fill:#ffffff;fill-opacity:1;fill-rule:nonzero;stroke:none" d="m 1232.08,912.922 c 0,0 35.74,0 61.7,0 28.21,0 39.45,13.133 39.45,32.394 0,4.465 -1.38,29.313 -31.35,29.313 13.68,0 -69.8,0 -69.8,0 z m -0.27,-144.891 c 0,0 49.4,0 76.77,0 27.36,0 39.66,19.563 39.66,36.852 0,-8.004 3.51,31.547 -35.76,31.547 -20.64,0 -80.67,0 -80.67,0 z m -115.86,294.819 c 0,0 176.71,0 212.17,0 77.89,0 113.47,-51.93 113.47,-99.389 0,-34.184 -13.15,-56.266 -48.41,-76.777 44.47,-16.446 68.65,-46.094 68.65,-91.844 0,-54.711 -39.73,-112.774 -133.43,-112.774 -51.94,0 -212.55,0 -212.55,0 l 0.1,380.784" />
			<path id="path20" style="fill:#ffffff;fill-opacity:1;fill-rule:nonzero;stroke:none" d="m 1638.84,949.977 -32.37,-127.016 h 69.23 z m -56.34,112.873 h 122.68 l 139.73,-380.342 h -125.92 l -18.44,56.961 H 1583 l -15.61,-56.668 h -124.97 l 140.08,380.049" />
			<path id="path22" style="fill:#ffffff;fill-opacity:1;fill-rule:nonzero;stroke:none" d="m 2040.59,949.734 h 116.98 c 0,64.586 -48.59,124.506 -163.87,124.506 -126.48,0 -165.64,-69.79 -165.64,-120.877 0,-82.367 100.81,-104.265 103.93,-105.242 15.07,-4.742 77.62,-21.504 93.25,-27.09 13.53,-4.836 26.47,-15.676 26.47,-30.152 0,-22.231 -26.47,-32.914 -48.53,-32.914 -14.15,0 -61.73,4.687 -61.73,55.121 h -120.87 c 0,-66.977 46.08,-141.93 175.34,-141.93 142.66,0 172.5,85.11 172.5,130.336 0,36.934 -20.92,77.899 -69.21,97.399 -29.03,11.73 -77.17,22.004 -101.33,29.062 -12.19,3.574 -52.81,11.797 -52.81,36.574 0,31.743 52.34,27.641 44.69,27.641 23.65,0 50.83,-13.313 50.83,-42.434" />
			<path id="path24" style="fill:#ffffff;fill-opacity:1;fill-rule:nonzero;stroke:none" d="m 2188.29,1062.93 h 291.99 v -100.5 h -175.31 v -67 h 156.32 V 799.391 H 2304.41 V 682.133 h -116.69 l 0.57,380.797" />
			<path id="path26" style="fill:#ffffff;fill-opacity:1;fill-rule:nonzero;stroke:none" d="m 506.262,380.738 -0.125,0.473 -36.508,137.207 h -22.906 l -37.075,-137.68 h -1.46 l -0.11,0.492 -32.336,137.188 h -21.164 l 42.098,-164.219 h 21.969 l 38.246,139.063 h 1.425 l 0.122,-0.469 37.652,-138.594 h 21.98 l 43.938,164.219 h -20.707 l -33.606,-137.68 h -1.433" />
			<path id="path28" style="fill:#ffffff;fill-opacity:1;fill-rule:nonzero;stroke:none" d="m 580.102,424.316 0.046,0.672 c 0.321,4.7 1.36,9.172 3.067,13.293 1.73,4.16 4.113,7.832 7.094,10.977 2.949,3.105 6.57,5.625 10.746,7.43 4.156,1.808 8.871,2.726 14.035,2.726 5.012,0 9.648,-0.918 13.801,-2.726 4.16,-1.805 7.82,-4.266 10.871,-7.313 3.051,-3.027 5.508,-6.719 7.312,-10.969 1.793,-4.246 2.871,-8.777 3.176,-13.418 l 0.055,-0.672 z m 79.074,28.106 c -4.192,6.699 -9.817,12.266 -16.719,16.601 -6.91,4.317 -15.715,6.524 -26.203,6.524 -8.055,0 -15.586,-1.563 -22.344,-4.59 -6.765,-3.047 -12.695,-7.383 -17.625,-12.832 -4.941,-5.469 -8.847,-12.031 -11.594,-19.492 -2.742,-7.461 -4.132,-15.82 -4.132,-24.805 0.304,-9.047 1.679,-17.5 4.011,-25.078 2.375,-7.621 5.953,-14.238 10.676,-19.711 4.68,-5.457 10.574,-9.777 17.508,-12.809 6.918,-3.05 15.219,-4.609 24.644,-4.609 13.395,0 24.665,3.418 33.473,10.09 8.621,6.551 14.328,16.379 16.984,29.23 h -18.187 c -1.762,-7.761 -5.359,-13.64 -10.672,-17.5 -5.41,-3.929 -12.441,-5.902 -20.891,-5.902 -6.57,0 -12.343,1.082 -17.187,3.281 -4.844,2.211 -8.891,5.18 -12.031,8.879 -3.114,3.633 -5.426,7.942 -6.844,12.723 -1.414,4.75 -2.043,9.867 -1.895,15.137 l 0.012,0.621 h 89.711 c 0.246,6.961 -0.406,14.418 -1.965,22.191 -1.605,7.91 -4.547,15.352 -8.73,22.051" />
			<path id="path30" style="fill:#ffffff;fill-opacity:1;fill-rule:nonzero;stroke:none" d="m 808.266,367.539 c -6.27,0 -11.75,1.262 -16.313,3.781 -4.547,2.52 -8.277,5.891 -11.094,10.032 -2.816,4.16 -4.918,8.937 -6.238,14.238 -1.324,5.308 -1.988,10.82 -1.988,16.379 0,6.019 0.629,11.957 1.863,17.64 1.25,5.684 3.352,10.782 6.242,15.176 2.875,4.375 6.805,7.93 11.684,10.625 4.883,2.656 10.988,4.004 18.148,4.004 8.465,0 15.309,-2.148 20.352,-6.406 4.902,-4.141 8.215,-10.031 9.844,-17.473 h 19.16 c -0.801,6.711 -2.617,12.59 -5.403,17.473 -2.898,5.117 -6.613,9.363 -11.07,12.676 -4.465,3.339 -9.687,5.828 -15.547,7.441 -5.871,1.602 -12.246,2.422 -18.957,2.422 -9.285,0 -17.539,-1.66 -24.519,-4.942 -6.992,-3.261 -12.887,-7.812 -17.504,-13.496 -4.637,-5.683 -8.141,-12.48 -10.446,-20.156 -2.285,-7.734 -3.441,-16.133 -3.441,-24.984 0,-8.86 1.184,-17.129 3.559,-24.489 2.355,-7.378 5.902,-13.808 10.547,-19.121 4.617,-5.308 10.464,-9.468 17.382,-12.359 6.903,-2.891 14.981,-4.34 23.973,-4.34 15.059,0 27.117,3.981 35.852,11.879 8.589,7.75 14.046,18.922 16.257,33.18 h -18.875 c -1.324,-9.117 -4.757,-16.289 -10.207,-21.367 -5.609,-5.192 -13.418,-7.813 -23.261,-7.813" />
			<path id="path32" style="fill:#ffffff;fill-opacity:1;fill-rule:nonzero;stroke:none" d="m 920.918,469.141 c -6.832,-4.543 -13.531,-11.719 -18.23,-21.301 l -0.172,-0.34 h -0.645 v 25.254 H 884.586 V 354.199 h 18.441 v 52.68 c 0,7.75 0.778,14.703 2.325,20.66 1.566,6.016 4.101,11.211 7.55,15.41 3.43,4.219 8.039,7.52 13.7,9.707 5.461,2.129 12.105,3.223 19.769,3.301 v 19.59 c -0.457,0.019 -0.902,0.019 -1.348,0.019 -9.609,0 -17.718,-2.168 -24.105,-6.425" />
			<path id="path34" style="fill:#ffffff;fill-opacity:1;fill-rule:nonzero;stroke:none" d="m 967.965,424.316 0.047,0.672 c 0.324,4.7 1.363,9.172 3.066,13.293 1.731,4.16 4.117,7.832 7.09,10.977 2.953,3.105 6.574,5.625 10.754,7.43 4.148,1.808 8.867,2.726 14.028,2.726 5.02,0 9.65,-0.918 13.8,-2.726 4.17,-1.805 7.83,-4.266 10.88,-7.313 3.05,-3.027 5.5,-6.719 7.31,-10.969 1.79,-4.246 2.87,-8.777 3.18,-13.418 l 0.04,-0.672 z m 79.075,28.106 c -4.19,6.699 -9.81,12.266 -16.72,16.601 -6.91,4.317 -15.72,6.524 -26.2,6.524 -8.061,0 -15.585,-1.563 -22.343,-4.59 -6.773,-3.047 -12.699,-7.383 -17.632,-12.832 -4.942,-5.469 -8.84,-12.031 -11.586,-19.492 -2.743,-7.461 -4.137,-15.82 -4.137,-24.805 0.305,-9.047 1.68,-17.5 4.016,-25.078 2.371,-7.621 5.953,-14.238 10.671,-19.711 4.684,-5.457 10.579,-9.777 17.512,-12.809 6.914,-3.05 15.215,-4.609 24.639,-4.609 13.4,0 24.67,3.418 33.48,10.09 8.62,6.551 14.33,16.379 16.98,29.23 h -18.19 c -1.76,-7.761 -5.36,-13.64 -10.67,-17.5 -5.41,-3.929 -12.44,-5.902 -20.89,-5.902 -6.572,0 -12.341,1.082 -17.185,3.281 -4.844,2.211 -8.898,5.18 -12.031,8.879 -3.117,3.633 -5.426,7.942 -6.848,12.723 -1.41,4.75 -2.039,9.867 -1.894,15.137 l 0.015,0.621 h 89.703 c 0.25,6.961 -0.4,14.418 -1.96,22.191 -1.61,7.91 -4.54,15.352 -8.73,22.051" />
			<path id="path36" style="fill:#ffffff;fill-opacity:1;fill-rule:nonzero;stroke:none" d="m 1158.02,395.25 c 0,-2.828 -0.71,-5.91 -2.12,-9.16 -1.41,-3.199 -3.65,-6.25 -6.65,-9.02 -2.98,-2.73 -6.85,-5.039 -11.55,-6.84 -4.7,-1.769 -10.38,-2.691 -16.92,-2.691 -2.97,0 -5.94,0.289 -8.83,0.941 -2.91,0.61 -5.47,1.661 -7.62,3.098 -2.18,1.453 -3.95,3.344 -5.3,5.652 -1.37,2.34 -2.07,5.211 -2.07,8.551 0,5.039 1.18,9.117 3.5,12.071 2.31,2.949 5.32,5.257 8.95,6.796 3.6,1.582 7.7,2.711 12.2,3.422 4.24,0.66 8.73,1.282 13.35,1.852 4.41,0.539 8.64,1.25 12.57,2.066 3.9,0.84 7.07,2.153 9.48,3.953 l 1.01,0.778 z m 19.27,-23.98 c -0.55,2.171 -0.81,5.562 -0.81,10.332 v 61.64 c 0,6.797 -1.3,12.383 -3.87,16.61 -2.54,4.211 -5.96,7.511 -10.19,9.855 -4.22,2.324 -9.03,3.906 -14.26,4.676 -11.8,1.711 -24.05,1.582 -34.88,-0.906 -5.92,-1.387 -11.24,-3.633 -15.78,-6.758 -4.53,-3.086 -8.21,-7.188 -10.94,-12.168 -2.64,-4.883 -4.16,-10.879 -4.51,-17.852 h 18.43 c 0.59,8.672 3.72,14.707 9.32,17.891 5.65,3.183 12.76,4.824 21.18,4.824 3.1,0 6.29,-0.234 9.47,-0.703 3.24,-0.469 6.2,-1.426 8.8,-2.852 2.63,-1.445 4.83,-3.535 6.49,-6.23 1.68,-2.727 2.53,-6.359 2.53,-10.781 0,-3.868 -1.16,-6.895 -3.46,-8.926 -2.22,-1.992 -5.27,-3.527 -9.07,-4.531 -3.72,-1.016 -8.08,-1.817 -12.95,-2.364 -4.79,-0.507 -9.95,-1.328 -15.35,-2.402 -5.06,-0.918 -10.06,-2.09 -14.91,-3.477 -4.78,-1.347 -9.09,-3.398 -12.78,-6.046 -3.67,-2.622 -6.7,-6.082 -8.97,-10.321 -2.26,-4.211 -3.41,-9.742 -3.41,-16.39 0,-5.911 1.04,-10.993 3.07,-15.153 2.02,-4.117 4.85,-7.558 8.4,-10.179 3.54,-2.629 7.72,-4.571 12.39,-5.7 4.72,-1.14 9.82,-1.699 15.15,-1.699 8.21,0 15.97,1.41 23.06,4.219 7.04,2.812 13.31,7.461 18.63,13.832 l 1.11,1.359 v -1.75 c 0,-6.269 1.46,-10.84 4.33,-13.558 2.89,-2.75 6.83,-4.102 11.73,-4.102 5.7,0 10.25,0.91 13.52,2.731 v 14.07 c -2.05,-0.633 -3.81,-0.922 -5.4,-0.922 -3.42,0 -5.45,1.231 -6.07,3.731" />
			<path id="path38" style="fill:#ffffff;fill-opacity:1;fill-rule:nonzero;stroke:none" d="m 1291.88,424.316 0.05,0.672 c 0.3,4.641 1.32,9.141 3.07,13.293 1.71,4.16 4.08,7.86 7.07,10.977 2.97,3.125 6.59,5.625 10.75,7.43 4.16,1.808 8.87,2.726 14.04,2.726 5,0 9.64,-0.918 13.81,-2.726 4.15,-1.805 7.8,-4.247 10.85,-7.313 3.06,-3.066 5.52,-6.738 7.32,-10.969 1.79,-4.207 2.87,-8.718 3.2,-13.418 l 0.04,-0.672 z m 78.66,28.106 c -4.19,6.699 -9.81,12.266 -16.73,16.601 -6.91,4.317 -15.73,6.524 -26.2,6.524 -8.06,0 -15.58,-1.563 -22.34,-4.59 -6.78,-3.047 -12.72,-7.383 -17.64,-12.832 -4.95,-5.469 -8.84,-12.031 -11.58,-19.492 -2.73,-7.461 -4.13,-15.82 -4.13,-24.805 0.3,-8.988 1.64,-17.43 4.02,-25.078 2.37,-7.621 5.95,-14.27 10.66,-19.711 4.71,-5.457 10.6,-9.777 17.51,-12.809 6.92,-3.05 15.22,-4.609 24.65,-4.609 13.4,0 24.64,3.418 33.45,10.09 8.62,6.551 14.35,16.379 17,29.23 h -18.18 c -1.78,-7.761 -5.38,-13.64 -10.69,-17.5 -5.4,-3.929 -12.43,-5.902 -20.88,-5.902 -6.56,0 -12.34,1.082 -17.19,3.281 -4.85,2.211 -8.89,5.18 -12.03,8.879 -3.14,3.68 -5.45,7.961 -6.85,12.723 -1.4,4.769 -2.03,9.867 -1.87,15.137 l 0.01,0.621 h 89.71 c 0.23,7.07 -0.43,14.535 -1.99,22.191 -1.61,7.91 -4.52,15.332 -8.71,22.051" />
			<path id="path40" style="fill:#ffffff;fill-opacity:1;fill-rule:nonzero;stroke:none" d="m 1519.89,367.539 c -6.27,0 -11.75,1.262 -16.3,3.781 -4.52,2.489 -8.27,5.891 -11.1,10.032 -2.81,4.097 -4.91,8.886 -6.25,14.238 -1.32,5.289 -1.99,10.801 -1.99,16.379 0,6.047 0.64,11.976 1.88,17.64 1.25,5.684 3.34,10.801 6.22,15.157 2.91,4.394 6.85,7.968 11.7,10.644 4.86,2.656 10.96,4.004 18.16,4.004 8.44,0 15.29,-2.148 20.33,-6.406 4.94,-4.141 8.25,-10.031 9.85,-17.473 h 19.18 c -0.81,6.711 -2.64,12.59 -5.41,17.492 -2.87,5.078 -6.6,9.317 -11.08,12.657 -4.49,3.339 -9.72,5.828 -15.55,7.441 -5.88,1.602 -12.26,2.422 -18.96,2.422 -9.29,0 -17.54,-1.66 -24.52,-4.942 -7.01,-3.261 -12.88,-7.812 -17.5,-13.496 -4.64,-5.683 -8.14,-12.48 -10.45,-20.156 -2.27,-7.715 -3.44,-16.113 -3.44,-24.984 0,-8.84 1.19,-17.11 3.57,-24.489 2.37,-7.378 5.9,-13.851 10.52,-19.121 4.63,-5.308 10.48,-9.468 17.39,-12.359 6.93,-2.891 15,-4.34 23.96,-4.34 15.09,0 27.15,3.981 35.87,11.879 8.57,7.731 14.04,18.902 16.24,33.18 h -18.85 c -1.31,-9.117 -4.73,-16.289 -10.21,-21.367 -5.58,-5.192 -13.41,-7.813 -23.26,-7.813" />
			<path id="path42" style="fill:#ffffff;fill-opacity:1;fill-rule:nonzero;stroke:none" d="m 1686,463.457 c -3.16,3.789 -7.36,6.758 -12.5,8.879 -5.17,2.117 -11.71,3.211 -19.46,3.211 -3.48,0 -7.14,-0.402 -10.89,-1.164 -3.72,-0.731 -7.33,-1.961 -10.75,-3.543 -3.42,-1.602 -6.52,-3.672 -9.21,-6.152 -2.71,-2.461 -5.49,-5.547 -6.99,-9.161 l -0.16,-0.39 h -0.88 v 63.281 h -18.44 V 354.199 h 18.44 v 67.031 c 0,5.43 0.74,10.528 2.23,15.157 1.5,4.609 3.76,8.711 6.74,12.148 2.97,3.457 6.75,6.153 11.23,8.067 4.47,1.875 9.82,2.812 15.89,2.812 7.7,0 13.87,-2.258 18.31,-6.68 4.42,-4.414 6.66,-10.488 6.66,-18.066 v -80.469 h 18.45 v 78.145 c 0,6.406 -0.66,12.304 -1.96,17.597 -1.28,5.215 -3.55,9.766 -6.71,13.516" />
			<path id="path44" style="fill:#ffffff;fill-opacity:1;fill-rule:nonzero;stroke:none" d="m 1739.24,424.316 0.06,0.672 c 0.3,4.641 1.33,9.141 3.06,13.293 1.71,4.16 4.09,7.832 7.08,10.977 2.98,3.125 6.6,5.625 10.76,7.43 4.12,1.808 8.85,2.726 14.03,2.726 5.02,0 9.66,-0.918 13.79,-2.726 4.18,-1.805 7.83,-4.266 10.87,-7.313 3.07,-3.066 5.52,-6.738 7.34,-10.969 1.78,-4.246 2.86,-8.777 3.17,-13.418 l 0.05,-0.672 z m 79.08,28.106 c -4.17,6.699 -9.81,12.266 -16.71,16.601 -6.92,4.317 -15.74,6.524 -26.21,6.524 -8.07,0 -15.59,-1.563 -22.36,-4.59 -6.77,-3.047 -12.69,-7.383 -17.63,-12.832 -4.93,-5.469 -8.82,-12.031 -11.58,-19.492 -2.75,-7.492 -4.13,-15.84 -4.13,-24.805 0.3,-9.027 1.67,-17.457 4.02,-25.078 2.37,-7.621 5.95,-14.238 10.67,-19.711 4.69,-5.457 10.58,-9.758 17.5,-12.809 6.92,-3.05 15.23,-4.609 24.66,-4.609 13.39,0 24.63,3.418 33.45,10.09 8.62,6.551 14.34,16.359 16.99,29.23 h -18.18 c -1.76,-7.761 -5.35,-13.64 -10.68,-17.5 -5.41,-3.929 -12.44,-5.902 -20.88,-5.902 -6.56,0 -12.34,1.082 -17.19,3.281 -4.84,2.211 -8.9,5.18 -12.03,8.879 -3.14,3.66 -5.44,7.961 -6.84,12.723 -1.42,4.75 -2.05,9.867 -1.89,15.137 l 0.01,0.621 h 89.71 c 0.24,7.031 -0.43,14.496 -1.99,22.191 -1.61,7.91 -4.53,15.332 -8.71,22.051" />
			<path id="path46" style="fill:#ffffff;fill-opacity:1;fill-rule:nonzero;stroke:none" d="m 2008.72,467.559 c -3.38,2.722 -7.51,4.726 -12.29,6.035 -4.8,1.289 -10.25,1.953 -16.18,1.953 -7.74,0 -14.92,-1.777 -21.38,-5.266 -6.44,-3.504 -11.71,-8.504 -15.62,-14.82 l -0.73,-1.164 -0.43,1.277 c -2.39,7.219 -6.58,12.395 -12.42,15.403 -5.92,3.027 -12.61,4.57 -19.88,4.57 -16.54,0 -30.1,-6.777 -38.88,-20.117 l -0.18,-0.293 H 1870 v 17.617 h -17.29 V 354.199 h 18.45 v 74.004 c 0,2.363 0.58,5.391 1.75,8.867 1.19,3.535 3.09,6.993 5.67,10.274 2.6,3.301 6,6.179 10.17,8.515 4.15,2.364 9.2,3.555 15.01,3.555 4.55,0 8.34,-0.676 11.28,-2.031 2.97,-1.367 5.36,-3.281 7.09,-5.781 1.76,-2.473 2.99,-5.391 3.7,-8.672 0.7,-3.262 1.05,-6.895 1.05,-10.801 v -77.93 h 18.45 v 74.004 c 0,9.383 2.86,17.031 8.51,22.676 5.66,5.664 13.54,8.535 23.41,8.535 4.84,0 8.87,-0.723 11.95,-2.129 3.1,-1.426 5.57,-3.406 7.34,-5.898 1.74,-2.481 2.94,-5.391 3.56,-8.711 0.64,-3.301 0.96,-6.856 0.96,-10.547 v -77.93 h 18.44 v 87.196 c 0,6.066 -0.96,11.32 -2.85,15.648 -1.89,4.266 -4.57,7.801 -7.93,10.516" />
			<path id="path48" style="fill:#ffffff;fill-opacity:1;fill-rule:nonzero;stroke:none" d="m 2070.19,472.754 h -18.43 V 354.199 h 18.43 z m 0,22.812 h -18.43 v 22.852 h 18.43 v -22.852" />
			<path id="path50" style="fill:#ffffff;fill-opacity:1;fill-rule:nonzero;stroke:none" d="m 2180.44,359.43 c 4.76,2.871 8.66,6.699 11.62,11.39 2.93,4.649 4.41,10.629 4.41,17.75 0,5.532 -1.09,10.258 -3.26,14.032 -2.21,3.789 -5.12,6.949 -8.64,9.41 -3.59,2.519 -7.74,4.566 -12.35,6.074 -4.66,1.543 -9.51,2.852 -14.42,3.918 -4.64,1.082 -9.27,2.117 -13.91,3.133 -4.67,1.015 -8.91,2.265 -12.63,3.73 -3.74,1.485 -6.88,3.418 -9.33,5.684 -2.52,2.363 -3.8,5.371 -3.8,8.945 0,3.203 0.82,5.879 2.45,7.93 1.6,2.012 3.7,3.613 6.26,4.793 2.5,1.183 5.33,2.023 8.4,2.492 6.44,0.996 12.71,0.996 18.78,-0.371 3.23,-0.684 6.21,-1.856 8.87,-3.399 2.69,-1.582 4.94,-3.711 6.7,-6.347 1.65,-2.5 2.67,-5.645 3.07,-9.356 h 18.43 c -0.5,6.875 -2.02,12.676 -4.51,17.285 -2.57,4.735 -6.05,8.575 -10.33,11.329 -4.33,2.832 -9.37,4.824 -14.97,5.957 -5.65,1.132 -11.91,1.738 -18.65,1.738 -5.16,0 -10.44,-0.664 -15.72,-1.953 -5.25,-1.309 -10.02,-3.313 -14.19,-5.957 -4.12,-2.637 -7.57,-6.133 -10.23,-10.352 -2.63,-4.199 -3.96,-9.316 -3.96,-15.195 0,-7.539 1.9,-13.469 5.64,-17.637 3.76,-4.258 8.55,-7.594 14.26,-9.941 5.73,-2.383 12.04,-4.223 18.77,-5.532 6.72,-1.281 13.1,-2.769 18.94,-4.41 5.85,-1.621 10.78,-3.789 14.67,-6.441 4.02,-2.758 6.06,-6.82 6.06,-12.109 0,-3.848 -0.98,-7.059 -2.92,-9.559 -1.89,-2.481 -4.36,-4.371 -7.3,-5.641 -2.9,-1.25 -6.12,-2.129 -9.56,-2.601 -7.81,-1.047 -14.94,-0.899 -21.65,0.472 -3.81,0.778 -7.31,2.09 -10.39,3.918 -3.1,1.821 -5.63,4.321 -7.53,7.379 -1.8,2.942 -2.85,6.551 -3.08,10.723 h -18.42 c 0.35,-7.02 1.89,-13.031 4.52,-17.961 2.74,-5.09 6.4,-9.211 10.94,-12.301 4.54,-3.09 9.85,-5.359 15.76,-6.719 11.4,-2.66 24.29,-2.769 36.94,-0.351 5.99,1.109 11.47,3.16 16.26,6.051" />
			<path id="path52" style="fill:#ffffff;fill-opacity:1;fill-rule:nonzero;stroke:none" d="m 2246.43,508.672 h -18.46 v -35.918 h -19.66 v -16.113 h 19.66 V 379.75 c 0,-5.469 0.55,-9.949 1.61,-13.25 1.04,-3.262 2.66,-5.84 4.8,-7.57 2.14,-1.789 4.98,-3.032 8.51,-3.7 3.56,-0.699 7.94,-1.031 12.97,-1.031 h 14.44 v 16.11 h -8.4 c -3.1,0 -5.65,0.121 -7.62,0.332 -2.03,0.257 -3.64,0.808 -4.81,1.648 -1.2,0.84 -2.02,2.051 -2.44,3.57 -0.4,1.442 -0.6,3.34 -0.6,5.743 v 75.039 h 24.59 v 16.113 h -24.59 v 35.918" />
			<path id="path54" style="fill:#ffffff;fill-opacity:1;fill-rule:nonzero;stroke:none" d="m 1234.39,508.672 h -18.46 v -35.918 h -19.67 v -16.113 h 19.67 V 379.75 c 0,-5.469 0.54,-9.949 1.6,-13.25 1.04,-3.262 2.66,-5.84 4.8,-7.57 2.14,-1.789 4.99,-3.032 8.51,-3.7 3.56,-0.699 7.93,-1.031 12.97,-1.031 h 14.45 v 16.11 h -8.42 c -3.09,0 -5.64,0.121 -7.61,0.332 -2.03,0.257 -3.64,0.808 -4.82,1.648 -1.19,0.84 -2.01,2.051 -2.43,3.57 -0.41,1.442 -0.59,3.34 -0.59,5.743 v 75.039 h 24.58 v 16.113 h -24.58 v 35.918" />
			<path id="path56" style="fill:#ffffff;fill-opacity:1;fill-rule:nonzero;stroke:none" d="m 2316.76,446.406 -0.17,-0.332 h -0.66 v 26.68 h -17.27 V 354.199 h 18.43 v 51.25 c 0,7.699 0.79,14.668 2.34,20.653 1.56,6.007 4.1,11.195 7.53,15.421 3.45,4.239 8.08,7.5 13.71,9.707 5.45,2.129 12.11,3.204 19.76,3.282 v 19.609 c -10.21,0.195 -18.77,-1.965 -25.43,-6.406 -6.83,-4.551 -13.52,-11.719 -18.24,-21.309" />
			<path id="path58" style="fill:#ffffff;fill-opacity:1;fill-rule:nonzero;stroke:none" d="m 2421.38,323.262 c 2.21,3.968 4.49,8.949 6.79,14.777 L 2480,472.754 h -19.48 l -33.62,-98.043 h -1.36 l -0.14,0.449 -34.87,97.594 h -20.85 l 47.26,-118.516 -0.1,-0.218 -8.12,-20.149 c -1.92,-3.711 -4.15,-6.512 -6.67,-8.383 -2.57,-1.949 -5.99,-2.918 -10.13,-2.918 -2.06,0 -4.11,0.321 -6.13,0.969 -1.63,0.5 -3.23,1.051 -4.83,1.582 v -16.762 c 1.98,-0.699 4.05,-1.168 6.17,-1.468 2.29,-0.289 4.58,-0.43 6.87,-0.43 4.38,0 8.21,0.57 11.38,1.68 3.16,1.14 6.07,2.949 8.7,5.429 2.64,2.5 5.1,5.77 7.3,9.692" />
		</g>
	</g>
</svg>
